<svg id="Layer_1" data-name="Layer 1" xmlns="http://www.w3.org/2000/svg" viewBox="0 0 1285.2599 370.2494"><defs><style>.cls-1{fill:#00dd36;}.cls-2{font-size:245.5405px;font-family:MODERNWARFARE, MODERN WARFARE;}</style></defs><polygon class="cls-1" points="133.43 49.21 41.85 134.69 133.43 210.4 143.96 219.11 142.29 253.63 0 135.94 146.08 0 144.19 39.17 133.43 49.21"/><text class="cls-2" transform="translate(168.8245 259.0567)">WEX</text><text class="cls-2" transform="translate(1083.4798 259.0564)">o</text><path class="cls-1" d="M1150.1574,1133.4291l245.3232-197.19L1219.13,969.5363q18.3191-20.604,36.638-41.2083l267.413-51.1113-238.7636,191.917,166.0317-35.7676-29.5454,40.6045Z" transform="translate(-357.37 -814.8753)"/><polygon points="219.12 234.309 73.04 370.249 74.93 331.079 85.69 321.039 177.27 235.559 85.69 159.849 75.16 151.139 76.83 116.619 219.12 234.309"/></svg>